<?xml version="1.0" standalone="no"?>
<!DOCTYPE svg PUBLIC "-//W3C//DTD SVG 20010904//EN"
 "http://www.w3.org/TR/2001/REC-SVG-20010904/DTD/svg10.dtd">
<svg version="1.0" xmlns="http://www.w3.org/2000/svg"
 width="480.000000pt" height="479.000000pt" viewBox="0 0 480.000000 479.000000"
 preserveAspectRatio="xMidYMid meet">
<metadata>
Created by potrace 1.16, written by Peter Selinger 2001-2019
</metadata>
<g transform="translate(0.000000,479.000000) scale(0.100000,-0.100000)"
fill="#000000" stroke="none">
<path d="M1485 4749 c-6 -34 -9 -38 -19 -24 -9 12 -19 14 -50 8 -54 -12 -67
-35 -37 -67 22 -23 22 -26 7 -41 -9 -9 -16 -23 -16 -30 0 -33 -57 -46 -203
-47 -78 0 -148 -4 -157 -8 -8 -5 -34 -14 -57 -21 -23 -6 -51 -20 -62 -31 -11
-10 -24 -18 -30 -18 -5 0 -12 -18 -16 -40 -4 -25 -12 -40 -21 -40 -19 0 -18
-7 11 -64 14 -27 25 -65 25 -83 0 -23 5 -35 18 -39 32 -10 47 -21 50 -38 3
-12 -5 -16 -33 -16 -47 0 -60 -15 -69 -73 -4 -25 -11 -49 -17 -52 -5 -4 -9
-21 -9 -38 0 -31 3 -33 52 -45 73 -17 83 -29 63 -76 -12 -28 -13 -42 -5 -50 7
-7 22 1 51 32 38 41 42 43 91 40 39 -2 54 -8 62 -23 6 -11 15 -23 20 -26 11
-9 -67 -89 -87 -89 -8 0 -18 -7 -21 -16 -4 -11 -17 -14 -43 -12 -33 3 -38 6
-36 26 3 25 -13 28 -41 7 -18 -13 -17 -15 8 -38 26 -25 34 -47 16 -47 -13 0
-13 -36 1 -62 9 -17 13 -18 21 -7 7 11 11 11 15 2 2 -7 13 -13 24 -13 11 0 24
-11 31 -25 7 -16 19 -25 33 -25 27 0 114 -45 132 -68 29 -38 -24 -131 -68
-117 -27 9 -85 -10 -120 -39 -50 -43 -136 -29 -149 24 l-6 25 -12 -22 c-16
-30 -37 -29 -68 2 -16 16 -36 25 -57 25 -36 0 -73 25 -90 60 -7 14 -22 29 -35
35 -17 8 -22 18 -22 47 0 20 5 40 10 43 20 12 11 71 -15 95 -14 13 -27 22 -29
19 -15 -15 -3 -79 15 -79 5 0 9 -12 9 -27 0 -20 -3 -24 -9 -15 -6 10 -10 7
-15 -12 -4 -18 -13 -26 -27 -26 -12 0 -34 -9 -49 -20 -15 -11 -42 -21 -59 -23
-17 -2 -34 -7 -39 -11 -4 -4 -8 -38 -9 -76 -1 -82 -7 -94 -34 -79 -27 14 -45
-2 -60 -51 -19 -62 -8 -84 52 -100 29 -8 63 -23 77 -34 14 -11 37 -21 51 -21
22 0 27 -5 29 -32 3 -29 22 -49 22 -23 0 21 54 70 89 80 20 6 45 15 56 20 11
5 34 11 50 15 17 3 52 10 78 16 33 7 58 7 78 0 21 -7 47 -7 87 1 31 6 125 11
207 12 126 1 155 -2 182 -17 52 -28 56 -44 51 -218 -2 -87 0 -160 3 -161 15
-5 -12 -229 -33 -286 -14 -39 -17 -57 -9 -60 15 -5 14 -41 -4 -135 -15 -77
-20 -197 -10 -197 4 0 18 6 33 14 27 14 28 13 46 -24 19 -40 46 -60 46 -36 0
8 11 17 25 20 14 4 25 11 25 16 0 6 9 10 21 10 11 0 18 -3 16 -7 -6 -10 18
-34 27 -27 3 2 4 1 1 -2 -6 -9 14 -44 26 -44 6 0 7 5 3 11 -4 8 1 9 17 4 22
-7 21 -5 -9 29 -27 31 -42 66 -28 66 13 0 77 -70 72 -78 -3 -6 6 -18 21 -27
14 -10 45 -34 67 -54 47 -41 85 -65 93 -57 3 3 0 13 -7 21 -12 14 -8 15 31 10
24 -4 56 -11 71 -17 14 -5 37 -7 50 -3 52 15 97 41 101 58 5 15 1 15 -34 -5
l-39 -22 -19 20 c-17 19 -17 22 -2 31 9 5 19 11 24 11 4 1 17 11 29 22 29 27
43 25 65 -9 21 -33 80 -101 88 -101 10 0 0 25 -15 38 -8 7 -10 11 -4 10 12 -3
84 34 84 43 0 4 -11 10 -25 13 -35 9 -31 26 5 26 22 0 30 -5 31 -17 0 -10 14
-29 30 -42 l30 -23 -7 53 c-3 30 -10 58 -15 63 -5 6 -9 18 -9 28 0 10 -4 18
-8 18 -5 0 -9 43 -10 96 -1 128 -7 151 -44 170 -16 9 -85 67 -153 130 -137
127 -241 264 -224 296 5 9 9 24 9 34 0 27 61 143 79 149 9 3 25 18 36 35 24
35 44 42 68 22 15 -14 17 -13 18 4 7 81 4 95 -19 110 -19 12 -26 13 -38 3 -17
-14 -51 0 -91 34 -30 27 -21 37 33 37 24 0 44 4 44 9 0 14 -49 50 -77 57 -28
7 -29 21 -4 43 18 16 71 108 71 124 0 12 62 87 72 87 5 0 22 16 39 35 17 19
46 44 64 55 19 12 37 30 40 40 4 11 17 23 31 26 13 3 29 14 34 23 9 14 11 14
22 1 7 -8 22 -17 33 -18 10 -2 24 -10 30 -17 5 -7 24 -15 40 -18 115 -21 158
-41 220 -104 22 -22 63 -55 90 -73 61 -42 80 -65 118 -144 16 -34 39 -75 51
-91 13 -17 27 -45 30 -62 11 -49 41 -28 52 37 2 8 7 16 13 18 5 2 7 10 4 18
-3 8 -1 14 5 14 17 0 20 -25 6 -45 -18 -24 -18 -55 -1 -55 8 0 24 11 37 25 13
14 28 25 33 25 6 0 8 -3 4 -6 -3 -3 7 -17 24 -31 44 -37 32 -103 -20 -103 -14
0 -21 -6 -21 -18 0 -56 -55 -43 -66 16 l-8 37 -7 -35 c-4 -19 -11 -61 -14 -93
-4 -32 -10 -70 -15 -85 -13 -45 -103 -247 -112 -250 -4 -2 -8 -9 -8 -15 0 -7
-20 -43 -45 -81 -45 -70 -48 -86 -16 -86 10 0 26 -9 36 -20 16 -17 16 -24 5
-65 -10 -34 -10 -48 -1 -59 8 -10 9 -16 1 -21 -5 -3 -10 -17 -10 -30 0 -33 32
-48 97 -47 32 0 51 -4 47 -9 -12 -21 19 -39 66 -39 30 0 52 -6 60 -15 9 -11
17 -12 32 -4 11 6 33 9 49 7 15 -3 26 -1 23 4 -3 4 2 8 10 8 9 0 16 -4 16 -9
0 -16 74 10 96 35 29 30 33 44 23 72 -6 15 -5 21 1 17 6 -4 13 7 16 23 4 18
27 48 65 82 60 52 129 165 129 208 0 11 11 31 25 46 14 15 25 34 25 42 0 8 9
42 20 75 19 55 20 68 9 142 -7 45 -16 86 -21 92 -4 5 -8 17 -8 26 0 10 -5 19
-10 21 -12 4 -18 94 -6 105 4 4 50 10 103 11 l94 4 30 -33 c35 -40 36 -66 5
-152 -18 -49 -21 -69 -12 -75 19 -16 162 -22 180 -9 14 11 14 19 -5 87 -14 52
-17 86 -12 110 4 19 8 42 9 50 0 8 5 28 9 44 4 16 9 66 11 110 1 45 4 94 5
109 3 39 -17 55 -77 62 -61 8 -79 -5 -89 -65 -4 -23 -13 -44 -21 -47 -8 -3
-14 -13 -14 -23 0 -29 -11 -50 -26 -50 -17 0 -17 5 -4 30 9 17 7 19 -20 15
-16 -2 -35 -7 -42 -11 -35 -22 -61 -11 -71 31 -4 19 -5 18 -6 -2 -1 -27 -16
-37 -37 -25 -9 5 -32 6 -50 2 -39 -9 -42 -6 -84 76 -36 72 -38 94 -8 89 12 -3
28 1 36 7 10 9 16 8 23 -3 7 -11 10 -10 15 9 4 12 12 22 20 22 8 0 11 -6 7
-17 -4 -10 -2 -14 4 -10 6 4 18 -2 28 -13 12 -14 21 -17 25 -9 5 7 12 5 23 -6
15 -15 19 -15 50 0 24 11 49 14 85 10 46 -5 52 -4 63 17 16 33 71 82 108 98
29 12 31 15 25 49 -4 20 -11 44 -15 53 -16 30 -9 53 26 87 39 38 43 49 18 58
-10 3 -34 22 -54 41 l-35 34 20 44 c11 24 26 44 33 44 7 0 15 11 19 25 3 14
11 25 16 25 5 0 34 26 64 57 51 54 59 72 56 116 -1 9 2 17 7 17 12 0 22 45 15
64 -3 9 -12 16 -20 16 -10 0 -14 12 -14 38 0 33 4 39 31 49 18 7 36 10 40 7 5
-3 9 2 9 10 0 9 4 16 8 16 5 0 17 8 28 18 11 9 44 30 74 46 30 16 64 37 75 46
31 26 51 30 75 13 81 -57 260 -72 260 -22 0 22 66 110 86 115 12 3 34 19 50
35 l28 29 -697 0 c-383 0 -697 -2 -697 -4 0 -1 5 -18 12 -37 13 -37 38 -69 38
-48 0 9 4 8 15 -1 8 -7 22 -10 30 -6 17 6 22 -29 5 -39 -5 -3 -10 -1 -10 4 0
6 -5 11 -11 11 -5 0 -8 -4 -5 -9 3 -5 -1 -12 -9 -15 -10 -4 -19 2 -24 17 -8
20 -14 22 -97 22 -66 0 -95 4 -114 17 -49 32 -81 31 -138 -4 -30 -18 -61 -46
-69 -63 -34 -65 -35 -62 6 -78 21 -9 51 -26 67 -40 47 -38 61 -41 224 -42 128
-1 161 -4 188 -19 l32 -18 -37 -25 c-34 -23 -41 -24 -70 -14 -35 13 -108 8
-178 -10 -86 -23 -102 -23 -132 5 -27 26 -56 32 -87 20 -9 -3 -16 -11 -16 -17
0 -6 -7 -18 -15 -27 -14 -15 -14 -21 1 -55 12 -31 13 -39 3 -46 -15 -9 -31 10
-22 25 3 5 1 6 -4 3 -6 -4 -28 15 -49 41 -61 74 -82 88 -254 165 -48 21 -190
31 -190 13 0 -6 -6 -2 -13 8 -7 10 -28 18 -47 19 -30 2 -35 -1 -34 -20 1 -30
-10 -29 -51 3 -19 14 -42 24 -52 21 -14 -4 -13 -5 5 -6 13 0 21 -5 17 -10 -3
-5 0 -13 6 -17 8 -4 -5 -14 -32 -25 l-44 -18 38 4 c31 3 38 1 33 -11 -3 -9 -6
-19 -6 -22 0 -4 -5 0 -10 8 -7 10 -10 11 -10 2 0 -9 -8 -9 -32 3 l-33 16 23
-20 23 -20 -38 -6 c-75 -13 -118 -30 -127 -52 -6 -12 -24 -26 -40 -32 -31 -11
-26 -10 49 6 l30 6 -31 -26 c-18 -15 -56 -38 -85 -52 -30 -14 -49 -25 -44 -25
17 -1 -56 -30 -75 -30 -9 0 -29 -9 -44 -21 -14 -11 -26 -16 -26 -10 0 5 32 30
70 56 39 26 70 48 70 49 0 7 -51 -7 -56 -15 -3 -5 -13 -9 -22 -9 -26 0 -2 18
75 57 51 25 60 32 34 27 -55 -10 -57 14 -5 48 50 31 57 42 18 27 -52 -19 -34
-1 20 21 36 14 65 20 84 16 16 -4 42 -1 58 5 16 7 35 11 42 10 6 -1 12 3 12 8
0 5 11 11 25 13 25 3 36 22 15 24 -5 1 -11 2 -12 4 -9 7 -49 5 -60 -2 -9 -6
-2 -8 20 -5 35 4 44 -8 12 -18 -26 -8 -60 3 -57 18 1 7 -8 11 -23 9 -24 -2
-24 -2 -6 12 34 27 124 48 185 42 31 -3 45 -2 31 2 -14 4 -27 16 -28 27 -12
68 -13 95 -4 95 5 0 12 8 15 19 4 15 17 19 78 23 41 3 88 12 104 21 28 15 -6
16 -507 17 l-536 0 -7 -41z m2201 -838 c33 -20 49 -63 33 -92 -4 -9 -25 -20
-46 -24 -31 -6 -39 -3 -55 17 -9 13 -18 29 -18 36 0 6 -4 12 -9 12 -16 0 -21
31 -8 45 8 7 25 15 38 18 13 2 26 5 29 6 3 0 19 -8 36 -18z m-1820 -1626 c9
-8 31 -15 50 -15 20 0 42 -6 49 -14 8 -7 25 -12 39 -11 22 3 24 1 13 -16 -7
-11 -13 -15 -15 -9 -2 5 -8 10 -13 10 -14 0 0 -49 29 -98 13 -24 23 -44 21
-46 -10 -9 -58 -32 -86 -42 -28 -10 -33 -9 -33 4 0 12 -3 13 -12 4 -14 -14
-32 -16 -23 -2 3 5 0 7 -8 4 -10 -4 -24 14 -46 57 -35 71 -36 76 -17 121 8 18
17 41 20 51 7 21 13 21 32 2z"/>
<path d="M4565 4438 c-7 -18 -16 -45 -20 -60 -3 -19 -12 -28 -25 -28 -10 0
-22 -5 -25 -11 -4 -6 -13 -8 -21 -5 -7 3 -29 -1 -48 -9 -20 -8 -48 -15 -65
-15 -23 0 -32 -7 -46 -37 -10 -21 -24 -42 -31 -46 -8 -4 -14 -16 -14 -25 0 -9
-6 -28 -13 -42 -8 -15 -11 -35 -7 -45 6 -16 1 -22 -24 -32 -27 -10 -28 -12 -8
-12 19 -1 23 -6 20 -28 -2 -23 -9 -29 -38 -33 -26 -4 -34 -9 -32 -23 2 -9 -3
-17 -11 -17 -8 0 -22 -9 -32 -21 -22 -24 -22 -84 0 -106 8 -8 15 -20 15 -27 0
-8 7 -19 15 -26 8 -7 15 -25 15 -41 0 -30 -12 -37 -69 -41 -19 -1 -36 -9 -39
-18 -3 -8 -14 -21 -24 -28 -12 -9 -16 -21 -12 -41 8 -40 -13 -131 -34 -147
-10 -8 -12 -13 -5 -14 7 0 19 -13 25 -30 8 -18 30 -38 58 -53 38 -20 46 -30
55 -66 5 -23 18 -47 27 -52 14 -8 16 -22 13 -87 -3 -42 -7 -90 -11 -105 -3
-15 -1 -34 6 -42 6 -7 10 -19 9 -27 -3 -29 2 -40 16 -34 9 3 21 -4 31 -19 18
-28 38 -31 95 -14 42 13 42 13 141 -73 37 -32 67 -49 94 -53 35 -6 44 -3 89
33 28 21 64 46 80 55 17 8 43 27 59 42 23 22 26 29 15 36 -9 6 -15 4 -17 -6
-2 -8 -8 -15 -13 -15 -10 0 -1 48 12 66 5 6 7 13 4 16 -3 3 1 11 10 18 13 11
15 83 15 572 0 445 -3 558 -12 551 -36 -22 -67 3 -68 55 0 24 8 40 33 63 l32
30 -35 -6 c-19 -3 -50 -14 -68 -23 -32 -16 -34 -16 -48 2 -18 26 -18 80 1 96
8 7 15 18 15 25 0 7 -7 15 -15 19 -8 3 -15 12 -15 21 0 29 -40 17 -55 -17z
m-152 -830 c13 -7 15 -13 7 -28 -6 -10 -15 -22 -20 -25 -23 -14 3 -24 28 -11
25 13 30 12 56 -9 23 -18 27 -28 22 -48 -11 -47 -106 -70 -106 -26 0 10 -4 19
-10 19 -5 0 -10 -7 -10 -15 0 -8 -6 -15 -12 -15 -19 -1 -68 -47 -68 -65 0 -17
-15 -20 -25 -6 -3 5 0 13 6 17 6 3 9 19 6 34 -5 22 -1 29 19 39 14 6 30 8 36
5 7 -5 9 5 4 30 -4 23 -3 36 4 36 18 0 11 24 -15 49 -14 12 -22 27 -19 32 6
10 68 2 97 -13z"/>
<path d="M35 4381 c-4 -7 -13 -10 -21 -7 -9 4 -14 -2 -14 -15 0 -11 6 -19 13
-17 23 4 86 -13 102 -28 13 -14 17 -14 32 1 29 29 62 35 211 36 81 0 141 3
133 6 -11 5 -11 7 0 14 8 5 -49 9 -141 8 -85 0 -189 3 -231 7 -55 5 -78 3 -84
-5z"/>
<path d="M2416 3248 c-34 -26 -166 -39 -166 -16 0 7 -3 8 -9 3 -16 -17 -1 -65
20 -65 12 0 16 -5 13 -15 -5 -11 2 -15 27 -16 70 -3 104 1 114 14 6 7 30 23
55 35 25 12 39 22 33 22 -21 0 -15 28 9 44 22 16 21 16 -22 16 -30 -1 -55 -8
-74 -22z"/>
<path d="M2409 2766 c-2 -2 -78 -19 -169 -37 -91 -18 -169 -36 -174 -40 -5 -5
3 -13 17 -20 15 -7 27 -16 27 -21 0 -4 8 -8 19 -8 29 0 121 32 116 40 -7 11
93 42 107 34 7 -4 8 -3 4 4 -5 8 0 11 11 10 23 -2 83 21 83 33 0 9 -33 13 -41
5z"/>
<path d="M0 1835 c0 -58 3 -61 46 -45 19 8 30 8 38 0 5 -5 18 -10 28 -10 10 0
18 -7 18 -15 0 -8 5 -15 10 -15 6 0 10 -7 10 -15 0 -25 31 -65 49 -65 65 0 46
107 -23 130 -19 6 -37 17 -40 25 -3 8 -17 15 -31 15 -30 0 -66 17 -78 36 -16
28 -27 12 -27 -41z"/>
<path d="M322 1852 c-10 -6 -10 -15 -3 -36 13 -32 47 -47 79 -35 38 14 70 11
76 -8 3 -10 4 -61 2 -114 -3 -94 -11 -121 -49 -163 -10 -12 -17 -32 -15 -46 2
-20 8 -25 31 -23 23 2 27 -2 27 -27 0 -27 15 -40 46 -40 13 0 13 3 0 22 -20
28 -20 72 -1 88 8 7 21 26 29 42 14 26 14 32 1 52 -8 13 -13 25 -10 28 3 3 -1
20 -9 39 -8 19 -14 52 -14 74 0 22 3 34 5 28 5 -14 93 -19 93 -5 0 14 -15 27
-32 28 -48 2 -56 6 -61 25 -4 14 -12 19 -24 17 -10 -2 -37 9 -60 24 -46 31
-91 43 -111 30z"/>
<path d="M4363 1360 c3 -22 0 -59 -7 -82 -13 -48 -7 -167 9 -171 6 -1 11 12
13 29 2 17 13 41 25 52 20 18 27 19 75 10 75 -15 69 -50 -17 -84 -35 -14 -41
-20 -41 -46 0 -19 -10 -40 -28 -58 -26 -25 -30 -38 -35 -111 -6 -71 -4 -84 11
-98 29 -26 47 -80 32 -94 -10 -9 -14 -9 -17 1 -3 6 -11 12 -19 12 -8 0 -14 5
-14 12 0 8 -3 8 -9 2 -13 -12 -29 -133 -46 -349 -8 -99 -22 -220 -30 -270 -8
-50 -15 -96 -15 -102 0 -16 222 -18 267 -3 32 12 40 37 14 45 -9 3 -21 13 -28
24 -10 17 -9 20 14 26 14 3 29 2 32 -4 4 -6 37 -11 75 -12 66 -2 69 -3 112
-45 24 -24 49 -44 54 -44 6 0 10 77 10 209 0 166 -3 215 -15 237 -13 26 -13
29 0 32 13 3 15 57 15 403 0 219 -4 399 -9 399 -4 0 -24 15 -44 33 -48 46 -89
62 -117 47 -12 -7 -34 -9 -49 -6 -91 20 -215 46 -219 46 -2 0 -2 -18 1 -40z
m314 -406 c3 -8 1 -29 -3 -47 -11 -37 -49 -52 -75 -30 -14 12 -18 10 -33 -22
-38 -80 -86 -17 -55 73 12 35 22 39 102 41 44 1 59 -3 64 -15z m-11 -440 c47
-20 64 -41 64 -79 0 -23 -7 -39 -21 -49 -19 -13 -26 -11 -84 26 -78 48 -89 61
-81 92 9 37 49 41 122 10z m112 -162 c2 -15 -8 -32 -30 -52 -108 -98 -103 -92
-83 -103 17 -9 18 -10 1 -23 -13 -9 -26 -10 -42 -4 -36 14 -78 2 -121 -35 -61
-51 -113 -55 -113 -9 0 15 10 30 28 41 35 21 59 50 76 89 10 22 23 33 45 37
17 4 51 16 75 27 25 11 50 20 57 20 6 0 20 11 30 24 15 20 24 23 47 17 17 -5
28 -15 30 -29z"/>
<path d="M2105 1285 c-182 -108 -363 -233 -490 -337 -169 -140 -241 -205 -235
-212 3 -3 24 11 45 31 22 20 65 59 96 87 31 28 74 65 95 81 21 17 52 42 69 56
51 43 176 131 250 175 213 129 246 146 259 135 8 -7 35 -55 61 -109 155 -316
195 -402 195 -416 0 -12 11 -16 45 -16 25 0 45 1 45 3 0 1 -20 24 -44 49 -31
34 -78 114 -165 287 -67 133 -125 241 -129 240 -4 0 -47 -24 -97 -54z"/>
<path d="M350 1238 c-14 -5 -35 -19 -47 -30 l-23 -21 25 -23 c18 -16 25 -34
25 -59 0 -22 4 -34 10 -30 6 3 10 -5 10 -19 0 -20 10 -29 53 -49 28 -14 78
-33 110 -42 57 -16 59 -16 77 3 18 19 18 20 -8 25 -15 3 -58 20 -97 37 -63 29
-68 33 -47 41 12 5 25 15 28 24 6 16 -13 75 -25 75 -3 0 -12 14 -19 30 -17 38
-40 50 -72 38z"/>
<path d="M2 1108 c3 -40 5 -43 33 -46 80 -7 94 -25 53 -69 -18 -19 -19 -27
-10 -47 9 -21 17 -24 69 -24 36 -1 69 5 89 16 35 19 102 92 85 92 -6 0 -11 10
-11 23 0 18 -2 19 -10 7 -5 -8 -10 -11 -10 -6 0 4 -20 -8 -44 -28 -64 -52 -91
-46 -98 24 -3 31 -7 35 -42 42 -21 5 -49 19 -62 33 -34 37 -46 32 -42 -17z"/>
<path d="M1352 690 c-12 -16 -37 -33 -55 -38 -29 -8 -33 -6 -44 17 -9 21 -12
22 -12 7 -1 -18 -2 -18 -19 -3 -25 23 -48 21 -65 -3 -8 -11 -17 -17 -20 -13
-4 3 -7 -4 -7 -16 0 -31 40 -102 53 -94 6 3 7 1 4 -4 -4 -6 0 -24 8 -39 14
-27 19 -29 75 -29 58 0 60 1 60 27 0 14 -8 39 -17 55 -16 29 -16 31 14 74 52
76 71 122 25 59z"/>
<path d="M231 603 c-28 -12 -39 -12 -58 -2 -27 15 -69 0 -81 -28 -5 -13 -18
-18 -47 -18 l-40 0 -3 -59 c-2 -47 0 -61 15 -71 17 -13 17 -14 1 -20 -10 -4
-18 -12 -18 -17 0 -6 6 -8 13 -5 7 3 12 -4 12 -19 0 -13 -6 -24 -12 -24 -10 0
-13 -32 -13 -124 l0 -125 28 -3 c37 -4 37 -34 0 -31 -25 2 -28 -2 -28 -28 l0
-29 146 0 c132 0 145 2 133 16 -10 13 -10 17 2 25 8 5 17 9 20 9 13 0 31 -29
24 -39 -4 -8 86 -11 284 -10 275 1 291 2 291 19 0 12 -14 24 -43 35 -35 13
-50 27 -78 73 -18 31 -41 68 -50 82 -9 14 -31 50 -48 80 -57 98 -56 97 -85 64
-34 -39 -32 -50 8 -64 30 -9 55 -45 41 -58 -9 -9 -165 -24 -182 -18 -17 7 -17
8 1 22 11 8 30 14 42 14 13 0 26 5 29 10 9 15 -43 31 -89 28 -37 -3 -41 -5
-38 -29 3 -37 -27 -61 -74 -57 -47 4 -53 19 -14 41 39 23 38 33 -5 41 -55 11
-44 34 29 61 28 11 51 26 53 36 6 22 65 43 98 35 20 -5 26 -2 31 18 16 67 -23
78 -89 25 -23 -18 -44 -28 -54 -25 -11 5 -12 10 -5 19 24 29 -3 39 -99 36 -99
-2 -186 8 -195 22 -3 5 0 9 5 9 6 0 11 6 11 13 0 9 25 11 99 9 108 -4 120 3
101 53 -11 28 -21 30 -69 8z"/>
<path d="M2126 532 c-16 -2 -37 -11 -47 -21 -19 -17 -18 -18 18 -29 21 -6 70
-17 108 -23 39 -6 88 -14 110 -19 22 -4 67 -13 100 -20 33 -6 111 -22 174 -36
63 -13 117 -22 119 -19 8 8 -59 32 -134 50 -81 18 -247 72 -288 92 -33 17
-116 30 -160 25z"/>
</g>
</svg>
